<svg width="80" height="88" viewBox="0 0 80 88" fill="none" xmlns="http://www.w3.org/2000/svg">
<path d="M38.7461 3.44141C39.4805 3.03673 40.3711 3.03673 41.1055 3.44141L76.1426 22.7471C76.9226 23.1769 77.4071 23.9971 77.4072 24.8877V63.1123C77.4071 64.0029 76.9226 64.8231 76.1426 65.2529L41.1055 84.5586C40.3711 84.9633 39.4805 84.9633 38.7461 84.5586L3.70898 65.2529C2.92899 64.8231 2.44447 64.0029 2.44434 63.1123V24.8877C2.44447 23.9971 2.92899 23.1769 3.70898 22.7471L38.7461 3.44141Z" stroke="#864AE7" stroke-width="4.88889"/>
<circle cx="39.8242" cy="43.2307" r="4.17569" fill="#E61E3D"/>
<path d="M39.8245 31.839L39.8245 12.3157" stroke="#864AE7" stroke-width="3.25926" stroke-linecap="round"/>
<path d="M39.8245 74.1445L39.8245 54.6212" stroke="#864AE7" stroke-width="3.25926" stroke-linecap="round"/>
<path d="M28.1111 49.7405L11.2035 59.5022" stroke="#864AE7" stroke-width="3.25926" stroke-linecap="round"/>
<path d="M68.4446 26.958L51.537 36.7196" stroke="#864AE7" stroke-width="3.25926" stroke-linecap="round"/>
<path d="M28.1111 36.7197L11.2035 26.9581" stroke="#864AE7" stroke-width="3.25926" stroke-linecap="round"/>
<path d="M68.4446 59.5023L51.537 49.7407" stroke="#864AE7" stroke-width="3.25926" stroke-linecap="round"/>
</svg>
